<?xml version="1.0" encoding="UTF-8" standalone="no"?>
<svg
   xmlns:dc="http://purl.org/dc/elements/1.1/"
   xmlns:cc="http://creativecommons.org/ns#"
   xmlns:rdf="http://www.w3.org/1999/02/22-rdf-syntax-ns#"
   xmlns:svg="http://www.w3.org/2000/svg"
   xmlns="http://www.w3.org/2000/svg"
   xmlns:sodipodi="http://sodipodi.sourceforge.net/DTD/sodipodi-0.dtd"
   xmlns:inkscape="http://www.inkscape.org/namespaces/inkscape"
   enable-background="new 0 0 55 55"
   height="55px"
   version="1.1"
   viewBox="0 0 55 55"
   width="55px"
   x="0px"
   xml:space="preserve"
   y="0px"
   id="svg2"
   sodipodi:version="0.32"
   inkscape:version="0.46"
   sodipodi:docname="application-x-kandid-project.svg"
   inkscape:output_extension="org.inkscape.output.svg.inkscape"><metadata
     id="metadata30"><rdf:RDF><cc:Work
         rdf:about=""><dc:format>image/svg+xml</dc:format><dc:type
           rdf:resource="http://purl.org/dc/dcmitype/StillImage" /></cc:Work></rdf:RDF></metadata><defs
     id="defs28"><inkscape:perspective
   sodipodi:type="inkscape:persp3d"
   inkscape:vp_x="0 : 27.5 : 1"
   inkscape:vp_y="0 : 1000 : 0"
   inkscape:vp_z="55 : 27.5 : 1"
   inkscape:persp3d-origin="27.5 : 18.333333 : 1"
   id="perspective32" />
	

		
	
			
			
            
            
            
            
            






		</defs><sodipodi:namedview
     inkscape:window-height="730"
     inkscape:window-width="645"
     inkscape:pageshadow="2"
     inkscape:pageopacity="0.0"
     guidetolerance="10.0"
     gridtolerance="10.0"
     objecttolerance="10.0"
     borderopacity="1.0"
     bordercolor="#666666"
     pagecolor="#ffffff"
     id="base"
     showgrid="false"
     inkscape:zoom="8.9818182"
     inkscape:cx="27.5"
     inkscape:cy="27.5"
     inkscape:window-x="15"
     inkscape:window-y="76"
     inkscape:current-layer="svg2" /><polygon
     style="fill:#ffffff;stroke:#010101;stroke-width:3.5"
     id="polygon9"
     points="10.932,6.088 31.874,6.088 43.818,18.027 43.818,48.914 10.932,48.914 10.932,6.088 " /><polyline
     style="fill:none;stroke:#010101;stroke-width:3.5"
     id="polyline11"
     points="43.818,18.027 31.874,18.027 31.874,6.088" /><g
     id="g2444"
     transform="matrix(0.4875608,0,0,0.4944414,13.062337,21.271342)"><path
       style="fill:#ffffff;stroke:#010101;stroke-width:4.34408617;stroke-linejoin:bevel"
       id="path2160"
       d="M 22.979863,14.879617 C 22.981751,19.68323 19.261999,23.58024 14.672228,23.582216 C 10.080571,23.584191 6.3589317,19.691131 6.3570444,14.887518 C 6.3570444,14.885543 6.3570444,14.881592 6.3570444,14.879617 C 6.35327,10.076004 10.073022,6.1789938 14.662792,6.1750435 C 19.252562,6.1730683 22.976089,10.066128 22.977976,14.869741 C 22.979863,14.873692 22.979863,14.877642 22.979863,14.879617 z" /><path
       style="fill:#ffffff;stroke:#010101;stroke-width:2.25;stroke-linejoin:bevel"
       id="path3134"
       d="M 26.475,9.535 C 26.475,11.967 24.504,13.94 22.072,13.941 C 19.639,13.942 17.667,11.971 17.665,9.539 C 17.665,9.538 17.665,9.536 17.665,9.535 C 17.664,7.102 19.635,5.13 22.067,5.128 C 24.5,5.127 26.472,7.098 26.474,9.53 C 26.475,9.532 26.475,9.534 26.475,9.535 z" /><path
       style="fill:#ffffff;stroke:#010101;stroke-width:2.25;stroke-linejoin:bevel"
       id="path3136"
       d="M 45.400826,7.3082794 C 45.400826,9.7402794 43.429826,11.713279 40.998826,11.714279 C 38.564826,11.715279 36.592826,9.7442794 36.590826,7.3122794 C 36.590826,7.3112794 36.590826,7.3092794 36.590826,7.3082794 C 36.590826,4.8752794 38.561826,2.9032794 40.992826,2.9012794 C 43.426826,2.9002794 45.398826,4.8712794 45.400826,7.3032794 C 45.400826,7.3052794 45.400826,7.3072794 45.400826,7.3082794 z" /><path
       style="fill:#ffffff;stroke:#010101;stroke-width:5.09838343;stroke-linejoin:bevel"
       id="path3138"
       d="M 50.54676,26.735695 C 50.54676,31.97851 45.85037,36.227928 40.055535,36.230083 C 34.258317,36.232238 29.559545,31.984975 29.554779,26.744314 C 29.554779,26.742159 29.554779,26.737849 29.554779,26.735695 C 29.552397,21.492879 34.248786,17.243462 40.043621,17.239152 C 45.840839,17.236997 50.539611,21.484259 50.544377,26.72492 C 50.54676,26.72923 50.54676,26.73354 50.54676,26.735695 z" /><path
       style="fill:#ffffff;stroke:#010101;stroke-width:2.25;stroke-linejoin:bevel"
       id="path3142"
       d="M 14.118,21.892 C 14.119,24.325 12.148,26.297 9.716,26.298 C 7.284,26.299 5.311,24.328 5.31,21.896 C 5.31,21.895 5.31,21.893 5.31,21.892 C 5.309,19.459 7.28,17.487 9.712,17.485 C 12.144,17.484 14.117,19.455 14.118,21.887 C 14.118,21.889 14.118,21.891 14.118,21.892 z" /><path
       style="fill:#ffffff;stroke:#010101;stroke-width:5.43040991;stroke-linejoin:bevel"
       id="path3146"
       d="M 40.027794,38.256097 C 40.031555,42.022712 32.618467,45.076892 23.471522,45.079989 C 14.320816,45.081538 6.903967,42.028907 6.9002059,38.262293 C 6.9002059,38.259195 6.9002059,38.257646 6.9002059,38.256097 C 6.8964448,34.487934 14.309533,31.433754 23.456478,31.432206 C 32.603423,31.429108 40.024033,34.481739 40.027794,38.249902 C 40.027794,38.251451 40.027794,38.253 40.027794,38.256097 z" /></g></svg>